<svg width="24" height="24" viewBox="0 0 24 24" fill="none" xmlns="http://www.w3.org/2000/svg">
<path d="M11.9999 8.67188C12.9356 8.09531 13.9818 7.72118 15.0709 7.57359C16.16 7.42601 17.268 7.50824 18.3234 7.815C17.9231 4.67953 15.2399 2.25 11.9999 2.25C8.75995 2.25 6.07683 4.67953 5.67651 7.81266C6.73207 7.50625 7.84013 7.4244 8.92925 7.57239C10.0184 7.72037 11.0644 8.09492 11.9999 8.67188V8.67188Z" fill="white"/>
<path d="M15.75 15.5498C15.7275 16.589 15.499 17.6133 15.0776 18.5635C14.6562 19.5136 14.0503 20.3706 13.2952 21.0848C14.1741 21.5232 15.1429 21.7509 16.125 21.75C19.6406 21.75 22.5 18.8906 22.5 15.375C22.4995 14.3404 22.2472 13.3214 21.7649 12.4061C21.2826 11.4908 20.5847 10.7066 19.7316 10.1213C19.5088 11.2635 19.0363 12.3425 18.348 13.2809C17.6597 14.2194 16.7726 14.9941 15.75 15.5498V15.5498Z" fill="white"/>
<path d="M13.2928 9.66516C14.4847 10.794 15.2937 12.2673 15.6066 13.8788C16.3522 13.3666 16.9805 12.7018 17.4497 11.9284C17.9189 11.155 18.2184 10.2907 18.3281 9.39281C17.5144 9.09298 16.6481 8.96248 15.7821 9.00931C14.9162 9.05614 14.069 9.27932 13.2924 9.66516H13.2928Z" fill="white"/>
<path d="M8.25234 15.5498C7.22926 14.9944 6.34157 14.2198 5.65277 13.2813C4.96398 12.3429 4.4911 11.2638 4.26797 10.1213C3.41491 10.7066 2.71714 11.4908 2.2349 12.4061C1.75266 13.3215 1.50043 14.3404 1.5 15.375C1.5 18.8906 4.35938 21.75 7.875 21.75C8.85791 21.7512 9.82759 21.5235 10.7072 21.0848C9.95203 20.3706 9.34618 19.5136 8.92478 18.5635C8.50338 17.6133 8.27482 16.589 8.25234 15.5498Z" fill="white"/>
<path d="M8.39344 13.8788C8.7063 12.2673 9.51531 10.794 10.7072 9.66516C9.93063 9.27938 9.08347 9.05624 8.21763 9.00941C7.3518 8.96258 6.48551 9.09305 5.67188 9.39281C5.78166 10.2907 6.08108 11.155 6.55029 11.9284C7.0195 12.7018 7.64777 13.3666 8.39344 13.8788V13.8788Z" fill="white"/>
<path d="M14.1984 16.1873C12.7624 16.6042 11.2375 16.6042 9.80151 16.1873C10.0047 17.7622 10.7887 19.2044 12 20.2313C13.2112 19.2044 13.9952 17.7622 14.1984 16.1873Z" fill="white"/>
<path d="M9.79688 14.6072C11.2189 15.1309 12.7811 15.1309 14.2031 14.6072C14.0093 13.0158 13.2226 11.5559 12 10.5187C10.7774 11.5559 9.99074 13.0158 9.79688 14.6072V14.6072Z" fill="white"/>
</svg>
