<svg width="21" height="18" viewBox="0 0 21 18" fill="none" xmlns="http://www.w3.org/2000/svg">
<path d="M18 0H3C2.20462 0.000868526 1.44206 0.317218 0.879639 0.879639C0.317218 1.44206 0.000868526 2.20462 0 3V15C0.000868526 15.7954 0.317218 16.5579 0.879639 17.1204C1.44206 17.6828 2.20462 17.9991 3 18H18C18.7954 17.9991 19.5579 17.6828 20.1204 17.1204C20.6828 16.5579 20.9991 15.7954 21 15V3C20.9991 2.20462 20.6828 1.44206 20.1204 0.879639C19.5579 0.317218 18.7954 0.000868526 18 0V0ZM14.25 3C14.695 3 15.13 3.13196 15.5 3.37919C15.87 3.62643 16.1584 3.97783 16.3287 4.38896C16.499 4.8001 16.5436 5.2525 16.4568 5.68895C16.37 6.12541 16.1557 6.52632 15.841 6.84099C15.5263 7.15566 15.1254 7.36995 14.689 7.45677C14.2525 7.54358 13.8001 7.49903 13.389 7.32873C12.9778 7.15843 12.6264 6.87004 12.3792 6.50003C12.132 6.13002 12 5.69501 12 5.25C12.0006 4.65345 12.2379 4.08152 12.6597 3.65969C13.0815 3.23787 13.6535 3.00062 14.25 3V3ZM3 16.5C2.60218 16.5 2.22064 16.342 1.93934 16.0607C1.65804 15.7794 1.5 15.3978 1.5 15V11.8298L5.94562 7.87828C6.37455 7.49787 6.93238 7.2953 7.50545 7.31185C8.07853 7.3284 8.62374 7.56282 9.03 7.96734L12.0745 11.0053L6.57984 16.5H3ZM19.5 15C19.5 15.3978 19.342 15.7794 19.0607 16.0607C18.7794 16.342 18.3978 16.5 18 16.5H8.70141L14.393 10.8084C14.7959 10.4657 15.3073 10.277 15.8363 10.2756C16.3653 10.2742 16.8776 10.4603 17.2823 10.8009L19.5 12.6487V15Z" fill="white"/>
</svg>
